PathFileType	4	(X/Y/Z)	G:\TennisProject\Miami_Dimitrov_Sinner_masked_Sports2D\Miami_Dimitrov_Sinner_masked_Sports2D_px_person01.trc
DataRate	CameraRate	NumFrames	NumMarkers	Units	OrigDataRate	OrigDataStartFrame	OrigNumFrames
25	25	11	22	m	25	311	499
Frame#	Time	Hip			RHip			RKnee			RAnkle			RBigToe			RSmallToe			RHeel			LHip			LKnee			LAnkle			LBigToe			LSmallToe			LHeel			Neck			Head			Nose			RShoulder			RElbow			RWrist			LShoulder			LElbow			LWrist		
		X1	Y1	Z1	X2	Y2	Z2	X3	Y3	Z3	X4	Y4	Z4	X5	Y5	Z5	X6	Y6	Z6	X7	Y7	Z7	X8	Y8	Z8	X9	Y9	Z9	X10	Y10	Z10	X11	Y11	Z11	X12	Y12	Z12	X13	Y13	Z13	X14	Y14	Z14	X15	Y15	Z15	X16	Y16	Z16	X17	Y17	Z17	X18	Y18	Z18	X19	Y19	Z19	X20	Y20	Z20	X21	Y21	Z21	X22	Y22	Z22
311	12.44	611.0735398433474	821.1996918981174	0.0	597.5550433366908	821.4392601371046	0.0	568.3627622858719	823.0799918485603	0.0	557.1769795691823	879.4721208531978	0.0	533.3793345323351	887.8373002887208	0.0	535.375483871402	886.5992365570814	0.0	561.3830177845139	891.5718715018533	0.0	612.3470051422203	827.248291512767	0.0	574.2744320376682	876.6630543497074	0.0	614.0092175203068	900.6878106365825	0.0	600.9231341955074	926.2954706635308	0.0	606.0104481817818	925.0693524331914	0.0	626.049640596106	903.3320152373741	0.0	571.5299274903424	752.2169591080175	0.0	555.5797753173973	722.7200024834351	0.0	557.6666652145991	743.866678532379	0.0	567.6998498270946	760.2693782245065	0.0	560.2952986118077	782.3060009302959	0.0	554.6655562021457	805.2199410972657	0.0	586.6777140466305	758.9848059332155	0.0	616.1739724974695	782.7318467247326	0.0	587.1864934259936	804.7231815959587	0.0
312	12.48	608.9337703705311	822.3175002792063	0.0	595.6275175869794	823.3266862256751	0.0	569.8984462647506	822.8026252742128	0.0	557.8640362057131	878.966017260904	0.0	533.6128051774502	887.0501823638599	0.0	535.7844198352345	885.8743687817542	0.0	561.5053971031004	890.9180709749056	0.0	606.9143097045167	829.3493060982671	0.0	575.5372212912491	880.4939860781773	0.0	611.4097653308186	898.8970286863678	0.0	600.4111354825812	926.8248268511805	0.0	605.1715494950631	925.2786460239716	0.0	622.7122481285506	900.9826499594526	0.0	570.4729120654393	750.6545942719375	0.0	554.8491750769041	724.2780669528445	0.0	553.4805404840513	745.7904733359137	0.0	574.7327573498551	758.276978439588	0.0	558.7967990741621	787.4058233029098	0.0	547.6077517174175	814.793014678396	0.0	580.2940791437359	763.0328655334956	0.0	604.8653280503739	793.4967052482582	0.0	587.9291498795811	821.46185285558	0.0
313	12.52	607.9684581002927	823.8241175062536	0.0	601.469956891497	823.8816702904577	0.0	570.3524432020787	824.6663150207751	0.0	558.2545103017176	879.0595776916857	0.0	534.061021362451	886.6194535196356	0.0	535.7487588166587	885.6931835534718	0.0	562.1997467503113	890.5101270482195	0.0	601.7281610937736	831.4369622526899	0.0	577.4536560200222	883.7646972739539	0.0	608.9774811864318	897.9146376436972	0.0	600.3042575847782	927.4850461230753	0.0	604.2417225936811	925.6566783643123	0.0	619.7112434911392	899.5619554334379	0.0	570.412579596478	749.5452885021397	0.0	553.2749403095493	725.9586594640346	0.0	551.0228565376468	747.9306306890189	0.0	585.5902174430236	752.7981036788267	0.0	566.4275479352063	783.0812295693473	0.0	548.6875582236056	808.7600722700481	0.0	572.2637625455558	768.2703252861522	0.0	591.0057050536979	803.2523390211242	0.0	580.7635410035517	833.7937795440627	0.0
314	12.56	607.7678059731599	825.7738878408541	0.0	612.4306485072353	824.0011614423519	0.0	569.3606784057739	828.4171903289447	0.0	558.1341063355839	879.7161489502	0.0	534.4834168419334	886.3055006099527	0.0	536.0092012274579	885.6512650661618	0.0	562.5343800239397	890.5052378649007	0.0	597.7928720798673	833.2090163059203	0.0	577.7246868344812	886.0860888151191	0.0	607.5579067524557	898.2246052534539	0.0	600.7183142617187	927.9142931465082	0.0	603.4690250979673	926.0349658990033	0.0	618.7779733071702	899.3185716615593	0.0	570.7419052057602	750.1793452752836	0.0	550.8269310221342	727.5628576062068	0.0	550.4773825530932	749.7094397040875	0.0	593.3972099087161	747.5179282252792	0.0	585.2466774757393	763.6876239938176	0.0	564.6082126671024	780.928781269665	0.0	566.7734947104423	773.3615527560693	0.0	578.808948497875	811.3210713639256	0.0	571.0743895557688	843.5320796064983	0.0
315	12.6	608.2372045811236	826.8873531490678	0.0	620.1599425121607	824.5220440744572	0.0	569.6272863040875	833.3598147732392	0.0	557.0314328375488	880.7119517367213	0.0	533.4841292941558	885.7621403565215	0.0	536.5906377769322	884.9181904188869	0.0	561.1477876318929	890.6350674508933	0.0	595.8801797605346	833.9748420485556	0.0	575.0057649578182	886.5307480954824	0.0	607.6321740136905	899.4382145614615	0.0	601.5855172679712	927.6482978143542	0.0	603.6240633561265	926.0811637692024	0.0	619.788917708102	899.9409110103489	0.0	571.2456146957011	750.8731458411529	0.0	550.6472944917463	727.8953068863497	0.0	551.2719214556486	749.7232140075906	0.0	596.7553432538002	744.0889245894127	0.0	607.7996383094772	738.186610860678	0.0	596.1045795643377	740.1242118530217	0.0	564.1347154085569	776.2549854016157	0.0	570.6414527286801	816.4102970185833	0.0	564.1135588570794	850.932956749839	0.0
316	12.64	609.073044811836	826.2306895070701	0.0	622.1217649417264	824.0999226287774	0.0	571.4226603376517	837.4638706516639	0.0	555.1968231319714	881.6210218289957	0.0	531.983113262567	884.7342579517007	0.0	537.3925708155859	883.6150220660011	0.0	558.3086681548441	890.6987338448914	0.0	595.9876509222275	832.8596761546628	0.0	570.5683365604601	884.1536084543932	0.0	608.1972276571875	900.446934415275	0.0	602.7837001064235	927.271929346374	0.0	604.6588044366088	926.1711766122795	0.0	620.6910453434343	901.1144337490105	0.0	572.6682303365046	750.2871918109054	0.0	553.4728018095141	725.8040326581408	0.0	553.9916858742968	747.1457307984938	0.0	599.1161925051999	741.3468565701254	0.0	624.9349950778098	720.9352586776497	0.0	632.68691991245	705.996885262796	0.0	563.8602448028832	776.3557539404394	0.0	567.6856580186056	816.9322060232873	0.0	561.9434082586188	853.7938358764458	0.0
317	12.68	610.3859299905165	824.0213092554492	0.0	622.8277667352579	821.821461695714	0.0	572.6270173326295	840.4768842459869	0.0	554.304938410751	882.0116550195349	0.0	531.8968727523768	883.5229577604471	0.0	538.5270989097592	882.6421366793566	0.0	556.4264117274784	890.7924011348185	0.0	597.8875857509559	829.9059627022211	0.0	567.8672064627522	879.0109192842073	0.0	608.3522360668314	900.9237035070078	0.0	604.1319649492007	927.7997407806475	0.0	605.451079824097	927.0106666502285	0.0	620.8014842011701	902.5923836302867	0.0	575.81333760291	747.4569319402506	0.0	558.0490621071107	720.9403683460476	0.0	558.8503160914829	741.7621503190256	0.0	602.971904477672	737.9757444220176	0.0	635.6932550053647	714.5895069530094	0.0	659.9796170175912	689.4093194269162	0.0	566.1611390456108	773.7471690102891	0.0	570.2893608790318	812.714657320599	0.0	565.3326959828335	850.6952040409451	0.0
318	12.72	613.2548782325584	820.345464341829	0.0	625.5048076574185	817.9783466052629	0.0	573.9579264404765	842.8842256924364	0.0	555.3181276345892	881.85378165879	0.0	532.7764367162467	882.9366059041613	0.0	539.4369663081258	882.3060073803049	0.0	557.0998205287995	890.7483957513205	0.0	601.8249419668552	825.4067212492807	0.0	569.7739436312276	872.7786578547716	0.0	608.9825644247114	901.9807254264063	0.0	604.7115591174456	929.0414004300299	0.0	605.119069620506	928.360085368608	0.0	621.2621996638081	904.378805945563	0.0	581.1206730920946	741.7505928836202	0.0	564.050443334343	713.592249848922	0.0	565.5305877704066	734.0783583138798	0.0	608.426493106881	733.4969549029012	0.0	643.2659623883986	712.7210484022074	0.0	672.5268277325214	686.8042334495566	0.0	571.1769913691085	768.1965494891252	0.0	576.7751325529953	805.3729137875624	0.0	573.3240802092408	842.9042340114692	0.0
319	12.76	618.2571604606061	815.210350112423	0.0	630.236617107176	812.8886074163751	0.0	578.2553093899298	842.9735875141731	0.0	557.2635345566586	881.2788308172583	0.0	534.0052098801473	881.1980633436741	0.0	540.2905107693672	880.4876673308092	0.0	559.0091980091414	889.9310239127981	0.0	607.5725211503094	819.8069468492872	0.0	575.6816839587993	867.4953552915824	0.0	610.9644527393039	904.2507394878124	0.0	603.7981282005672	930.3132413001849	0.0	604.0353318696998	929.6430375368762	0.0	622.672496609351	906.8947496714665	0.0	588.3654380482341	734.0367257240636	0.0	571.8606865764873	704.8513470213644	0.0	573.7441748479388	725.7271137401281	0.0	614.513216627506	728.0945666488781	0.0	647.9818581927949	712.2603187741447	0.0	674.0668000567437	691.6012430909759	0.0	578.2329703794412	759.7660605094962	0.0	584.7106963054712	796.0471400031299	0.0	584.0197864699544	832.2258791063283	0.0
320	12.8	624.471886389572	809.4143158650166	0.0	636.062450064582	807.2390152444978	0.0	585.2746694867858	839.5742448731467	0.0	560.3646021348328	880.3423356134086	0.0	537.5748211732379	876.0067520804465	0.0	543.1583149149873	875.5439877514164	0.0	561.6367445193206	888.745633400401	0.0	614.0264274580164	814.0217881405574	0.0	582.1005204665596	863.4287660587111	0.0	613.1770606208033	906.2978514184696	0.0	602.5144836891307	931.2885850748197	0.0	603.1314290268258	930.5474354812777	0.0	624.1735102744169	909.8234279864412	0.0	596.2054324404039	726.39774045553	0.0	580.8109702183017	696.5024298729821	0.0	581.9976377458104	718.4305113974258	0.0	620.3886144795597	722.6692707430454	0.0	649.8195816043684	713.1550267073083	0.0	671.4110406392035	699.2249638792877	0.0	585.7106503916439	750.2042640214911	0.0	592.5837698439434	785.7119453233897	0.0	595.4928270608466	820.7987725829778	0.0
321	12.84	630.8633502861893	804.6199184121798	0.0	642.5193249523477	802.6114949955717	0.0	593.2015818979569	834.5488826740228	0.0	567.8533414816374	879.1548185749789	0.0	545.8810675459056	871.6987835299602	0.0	550.3015187167505	871.9820754768427	0.0	568.230008234523	888.225322276779	0.0	620.2914447616772	809.234987802614	0.0	586.1464025449782	859.2354911410172	0.0	613.916864640979	906.6622714894456	0.0	601.080801077586	931.3566050762137	0.0	602.2059770056901	930.53461789404	0.0	624.3715538115762	911.9023214784681	0.0	603.5476177027087	720.882208409445	0.0	589.3841107516246	689.8901382783324	0.0	589.1348382094476	712.5182046474754	0.0	626.1227506215873	718.6952727292462	0.0	652.1944176111226	714.5749958602557	0.0	670.8465391647019	705.7706149402622	0.0	592.2399585969832	742.7479723339543	0.0	599.4702311744194	777.1415083804135	0.0	605.000820639219	812.0245717012563	0.0
